<?xml version="1.0" standalone="no"?>
<!DOCTYPE svg PUBLIC "-//W3C//DTD SVG 20010904//EN"
 "http://www.w3.org/TR/2001/REC-SVG-20010904/DTD/svg10.dtd">
<svg version="1.0" xmlns="http://www.w3.org/2000/svg"
 width="192.000000pt" height="192.000000pt" viewBox="0 0 192.000000 192.000000"
 preserveAspectRatio="xMidYMid meet">

<g transform="translate(0.000000,192.000000) scale(0.100000,-0.100000)"
fill="#000000" stroke="none">
<path d="M755 1395 c-185 -70 -136 -345 61 -345 58 0 111 28 149 79 20 29 25
46 25 96 0 52 -4 68 -29 102 -48 67 -133 95 -206 68z m143 -90 c26 -29 32 -43
32 -81 0 -39 -5 -51 -34 -80 -29 -29 -41 -34 -80 -34 -61 0 -105 37 -113 95
-16 124 111 189 195 100z"/>
<path d="M500 1348 c-36 -27 -77 -59 -92 -69 l-26 -19 -86 65 c-47 36 -88 65
-91 65 -3 0 -5 -76 -5 -170 l0 -170 30 0 30 0 0 103 c0 57 3 106 6 110 4 3 31
-12 61 -35 l55 -40 52 36 c29 20 58 36 64 36 9 0 12 -31 12 -105 l0 -105 25 0
c14 0 28 6 31 13 2 7 3 85 2 174 l-3 162 -65 -51z"/>
<path d="M1060 1225 l0 -175 71 0 c143 0 207 73 149 168 -16 26 -19 41 -12 65
20 81 -21 117 -135 117 l-73 0 0 -175z m145 80 c0 -28 -3 -30 -42 -33 l-43 -3
0 36 0 36 43 -3 c39 -3 42 -5 42 -33z m14 -104 c19 -12 19 -70 0 -82 -8 -5
-32 -8 -54 -7 -37 3 -40 5 -43 36 -2 19 -1 40 2 48 6 16 72 19 95 5z"/>
<path d="M1370 1225 l0 -175 30 0 30 0 0 175 0 175 -30 0 -30 0 0 -175z"/>
<path d="M1510 1225 l0 -175 105 0 105 0 0 30 0 30 -70 0 -70 0 0 145 0 145
-35 0 -35 0 0 -175z"/>
<path d="M200 721 l0 -211 34 0 c33 0 35 2 38 38 l3 37 60 5 c105 9 174 75
175 169 0 49 -34 112 -76 141 -31 21 -51 25 -135 28 l-99 4 0 -211z m204 113
c21 -22 26 -36 26 -76 0 -69 -32 -98 -106 -98 l-54 0 0 93 c0 52 3 97 7 100 3
4 27 7 53 7 38 0 53 -5 74 -26z"/>
<path d="M580 720 l0 -210 125 0 125 0 0 35 0 34 -82 3 -83 3 -3 173 -2 172
-40 0 -40 0 0 -210z"/>
<path d="M1640 810 c0 -70 -4 -120 -10 -120 -10 0 -238 188 -260 215 -7 8 -16
15 -21 15 -5 0 -9 -92 -9 -205 l0 -205 35 0 35 0 0 119 c0 66 4 122 8 125 4 2
61 -41 127 -95 66 -55 132 -109 148 -120 l27 -20 0 205 0 206 -40 0 -40 0 0
-120z"/>
<path d="M959 715 l-106 -205 39 0 c34 0 40 4 49 30 l11 30 109 0 110 0 17
-30 c14 -25 23 -30 55 -30 20 0 37 3 37 6 0 3 -41 85 -92 182 -51 97 -97 187
-103 199 -5 13 -12 23 -15 23 -3 0 -53 -92 -111 -205z m152 -13 c10 -24 19
-48 19 -53 0 -5 -29 -9 -65 -9 -38 0 -65 4 -65 10 0 6 14 38 31 72 30 59 32
61 46 43 8 -11 24 -39 34 -63z"/>
</g>
</svg>
